
<svg xmlns="http://www.w3.org/2000/svg" width="32" height="32" viewBox="0 0 24 24" fill="white">
  <path d="M20.447 20.452h-3.554v-5.569c0-1.328-.025-3.037-1.852-3.037-1.853 0-2.137 1.445-2.137 2.939v5.667H9.352V9h3.414v1.561h.049c.476-.9 1.635-1.852 3.366-1.852 3.595 0 4.256 2.365 4.256 5.444v6.299zM5.337 7.433c-1.144 0-2.07-.927-2.07-2.07 0-1.143.926-2.07 2.07-2.07 1.143 0 2.07.927 2.07 2.07 0 1.143-.927 2.07-2.07 2.07zM6.814 20.452H3.861V9h2.953v11.452zM22.225 0H1.771C.792 0 0 .774 0 1.729v20.542C0 23.226.792 24 1.771 24h20.451C23.2 24 24 23.226 24 22.271V1.729C24 .774 23.2 0 22.222 0z"/>
</svg>
